<svg width="36" height="36" viewBox="0 0 36 36" fill="none" xmlns="http://www.w3.org/2000/svg">
<circle cx="18" cy="18" r="18" fill="white"/>
<path d="M7.40039 13.0064C7.40039 13.5587 7.84811 14.0064 8.40039 14.0064C8.95268 14.0064 9.40039 13.5587 9.40039 13.0064H7.40039ZM13.0084 9.39844C13.5607 9.39844 14.0084 8.95072 14.0084 8.39844C14.0084 7.84615 13.5607 7.39844 13.0084 7.39844V9.39844ZM22.9924 7.39844C22.4401 7.39844 21.9924 7.84615 21.9924 8.39844C21.9924 8.95072 22.4401 9.39844 22.9924 9.39844L22.9924 7.39844ZM23.7604 8.39844L23.7604 7.39844L23.7604 8.39844ZM27.6004 12.2384L26.6004 12.2384V12.2384H27.6004ZM26.6004 13.0064C26.6004 13.5587 27.0481 14.0064 27.6004 14.0064C28.1527 14.0064 28.6004 13.5587 28.6004 13.0064H26.6004ZM12.5635 25.6175C12.954 25.227 12.954 24.5939 12.5635 24.2033C12.173 23.8128 11.5398 23.8128 11.1493 24.2033L12.5635 25.6175ZM8.46128 26.8913C8.07076 27.2819 8.07076 27.915 8.46128 28.3055C8.85181 28.6961 9.48497 28.6961 9.8755 28.3055L8.46128 26.8913ZM26.1253 28.3055C26.5158 28.6961 27.149 28.6961 27.5395 28.3055C27.93 27.915 27.93 27.2819 27.5395 26.8913L26.1253 28.3055ZM24.8515 24.2033C24.461 23.8128 23.8278 23.8128 23.4373 24.2033C23.0468 24.5939 23.0468 25.227 23.4373 25.6175L24.8515 24.2033ZM19.0004 15.5984C19.0004 15.0462 18.5527 14.5984 18.0004 14.5984C17.4481 14.5984 17.0004 15.0462 17.0004 15.5984H19.0004ZM17.0004 21.5984C17.0004 22.1507 17.4481 22.5984 18.0004 22.5984C18.5527 22.5984 19.0004 22.1507 19.0004 21.5984H17.0004ZM21.0004 19.5984C21.5527 19.5984 22.0004 19.1507 22.0004 18.5984C22.0004 18.0462 21.5527 17.5984 21.0004 17.5984V19.5984ZM15.0004 17.5984C14.4481 17.5984 14.0004 18.0462 14.0004 18.5984C14.0004 19.1507 14.4481 19.5984 15.0004 19.5984V17.5984ZM9.40039 13.0064V12.2384H7.40039V13.0064H9.40039ZM12.2404 9.39844H13.0084V7.39844H12.2404V9.39844ZM9.40039 12.2384C9.40039 10.6699 10.6719 9.39844 12.2404 9.39844V7.39844C9.56733 7.39844 7.40039 9.56538 7.40039 12.2384H9.40039ZM22.9924 9.39844L23.7604 9.39844L23.7604 7.39844L22.9924 7.39844L22.9924 9.39844ZM26.6004 12.2384V13.0064H28.6004V12.2384H26.6004ZM23.7604 9.39844C25.3289 9.39844 26.6004 10.6699 26.6004 12.2384L28.6004 12.2384C28.6004 9.56538 26.4334 7.39844 23.7604 7.39844L23.7604 9.39844ZM11.1493 24.2033L8.46128 26.8913L9.8755 28.3055L12.5635 25.6175L11.1493 24.2033ZM27.5395 26.8913L24.8515 24.2033L23.4373 25.6175L26.1253 28.3055L27.5395 26.8913ZM25.4484 18.7664C25.4484 22.8799 22.1138 26.2144 18.0004 26.2144V28.2144C23.2184 28.2144 27.4484 23.9844 27.4484 18.7664H25.4484ZM18.0004 26.2144C13.887 26.2144 10.5524 22.8799 10.5524 18.7664H8.55239C8.55239 23.9844 12.7824 28.2144 18.0004 28.2144V26.2144ZM10.5524 18.7664C10.5524 14.653 13.887 11.3184 18.0004 11.3184V9.31844C12.7824 9.31844 8.55239 13.5484 8.55239 18.7664H10.5524ZM18.0004 11.3184C22.1138 11.3184 25.4484 14.653 25.4484 18.7664H27.4484C27.4484 13.5484 23.2184 9.31844 18.0004 9.31844V11.3184ZM17.0004 15.5984V18.5984H19.0004V15.5984H17.0004ZM17.0004 18.5984V21.5984H19.0004V18.5984H17.0004ZM21.0004 17.5984H18.0004V19.5984H21.0004V17.5984ZM18.0004 17.5984H15.0004V19.5984H18.0004V17.5984Z" fill="#429BCA"/>
</svg>
